<?xml version="1.0" standalone="no"?>
<!DOCTYPE svg PUBLIC "-//W3C//DTD SVG 20010904//EN"
 "http://www.w3.org/TR/2001/REC-SVG-20010904/DTD/svg10.dtd">
<svg version="1.0" xmlns="http://www.w3.org/2000/svg"
 width="1280.000000pt" height="786.000000pt" viewBox="0 0 1280.000000 786.000000"
 preserveAspectRatio="xMidYMid meet">
<metadata>
Created by potrace 1.15, written by Peter Selinger 2001-2017
</metadata>
<g transform="translate(0.000000,786.000000) scale(0.100000,-0.100000)"
fill="#000000" stroke="none">
<path d="M6845 6939 c-104 -3 -1452 -5 -2995 -4 -3064 2 -2916 5 -2986 -53
-59 -49 -119 -79 -167 -85 -31 -3 -53 -11 -61 -23 -8 -10 -16 -57 -20 -104 -7
-108 0 -452 13 -595 6 -60 16 -197 23 -304 16 -248 20 -255 179 -315 100 -38
222 -91 374 -165 77 -38 172 -80 211 -94 90 -32 324 -138 579 -262 110 -53
232 -110 270 -125 39 -16 103 -44 142 -64 40 -20 75 -36 77 -36 3 0 69 -31
148 -68 79 -38 175 -83 213 -100 39 -17 126 -56 195 -87 69 -31 151 -68 182
-81 99 -41 192 -96 238 -139 25 -24 65 -57 89 -74 37 -26 54 -52 113 -168 91
-180 98 -207 98 -378 0 -207 -31 -421 -87 -600 -22 -69 -38 -96 -120 -200
-188 -240 -338 -368 -570 -486 -120 -61 -169 -101 -177 -141 -2 -13 -12 -68
-21 -123 -22 -131 -33 -153 -99 -210 -35 -31 -63 -66 -78 -99 -22 -49 -23 -61
-23 -321 0 -148 6 -331 13 -405 7 -74 15 -169 18 -210 7 -120 39 -190 97 -215
15 -6 36 -27 45 -46 14 -29 23 -35 55 -37 25 -2 48 3 65 15 30 19 113 23 237
10 215 -23 281 -25 311 -9 13 7 112 14 250 18 337 9 343 9 414 -3 102 -17 145
13 180 124 7 24 21 45 31 48 9 3 52 31 96 62 150 108 294 154 583 188 156 18
607 39 825 39 269 -1 627 -38 769 -79 27 -8 59 -12 72 -9 17 4 34 -2 58 -20
19 -14 69 -42 111 -62 90 -44 242 -174 282 -241 20 -34 29 -42 42 -36 9 4 61
7 116 5 83 -2 108 1 148 18 45 20 50 20 61 5 9 -13 34 -18 97 -22 76 -5 90 -3
149 22 71 30 103 32 330 16 83 -6 137 -14 161 -26 33 -16 38 -16 67 -1 37 19
113 21 130 4 19 -19 154 -17 176 1 28 24 56 87 56 129 0 23 6 45 15 52 9 8 15
30 15 59 0 25 7 75 15 111 39 174 40 202 15 287 -12 43 -50 132 -83 198 -50
97 -61 130 -63 173 -2 65 -49 164 -126 267 -29 39 -163 183 -298 320 -283 287
-366 383 -478 550 -125 188 -141 226 -153 358 -6 75 -6 136 1 186 6 41 7 95 4
121 -4 34 -2 56 11 80 9 18 24 78 32 133 23 153 106 316 224 438 98 102 263
169 413 169 174 0 471 34 716 81 705 138 1255 294 1685 479 322 138 935 478
1126 624 128 98 254 204 295 247 53 56 219 271 249 324 41 69 76 193 81 285 8
151 -41 223 -190 279 -89 33 -227 40 -1006 48 -864 9 -854 9 -1320 0 -666 -13
-1175 -16 -1215 -9 -32 6 -44 14 -62 47 -25 45 -77 74 -132 75 -19 0 -82 15
-140 34 -88 29 -128 36 -230 41 -115 6 -155 16 -181 45 -3 3 -30 18 -60 33
-31 14 -76 39 -100 55 l-45 30 -305 3 c-168 2 -390 1 -495 -2z"/>
</g>
</svg>
